# Blender v2.92.0 OBJ File: ''
# www.blender.org
mtllib suzanne_bad.mtl
o suzanne_simplified.001
v 5.815456 0.123465 0.759153
v 5.695108 0.027384 0.618795
v 5.930996 0.138222 0.574404
v 5.170969 0.058085 0.641744
v 4.881619 0.169706 0.740532
v 4.820310 0.158446 0.578435
v 5.656085 0.162002 0.825178
v 5.472075 0.219819 0.653391
v 5.227274 0.356812 0.649475
v 5.106464 0.185182 0.822542
v 5.645615 0.348366 0.797554
v 5.583529 0.430949 0.637586
v 5.599290 0.237037 0.812883
v 5.790272 0.357875 0.785914
v 5.079020 0.338460 0.817353
v 4.991983 0.464457 0.610982
v 4.935839 0.335085 0.782395
v 4.788778 -0.036935 0.579814
v 5.158551 -0.189999 0.574918
v 5.266153 -0.144172 0.764438
v 5.462553 -0.142868 0.763856
v 5.475802 -0.214941 0.819674
v 5.502104 -0.236536 0.735493
v 5.247622 -0.772389 0.721524
v 5.278531 -0.788817 0.653175
v 5.452566 -0.790191 0.650975
v 4.752334 0.281946 0.674414
v 4.831236 0.236552 0.677739
v 5.029286 0.402018 0.753352
v 4.970103 0.075572 0.727720
v 5.019240 0.119475 0.729969
v 5.836777 0.080825 0.706471
v 5.576872 0.174001 0.751760
v 5.539216 0.177124 0.764488
v 5.156549 0.127772 0.765553
v 5.163896 0.205878 0.751424
v 5.189177 0.344387 0.777962
v 6.170836 0.408459 0.611423
v 5.884282 0.534347 0.547636
v 5.683443 0.711030 0.658880
v 4.597004 0.384973 0.645213
v 5.046337 0.709628 0.718037
v 4.576474 0.429543 0.577007
v 5.606186 -0.308694 -0.285711
v 5.558818 -0.378856 0.272186
v 5.507246 -0.467433 0.325744
v 5.310646 -0.251787 -0.535275
v 5.436193 0.947342 -0.058777
v 5.918736 0.819919 -0.277706
v 5.547183 0.873130 -0.438089
v 5.075543 0.829610 -0.460229
v 5.407301 0.517254 -0.757575
v 4.587479 0.579534 0.031521
v 4.632124 0.410451 0.339678
v 4.899716 0.545730 0.424270
v 5.258843 0.487152 0.602037
v 4.945371 0.880091 0.090698
v 5.359150 0.846831 0.274871
v 6.155437 0.160113 0.201052
v 6.081302 0.428157 0.328296
v 4.616373 0.117746 0.378613
v 4.656622 0.565447 -0.427171
v 4.526269 0.344957 -0.208031
v 5.860120 -0.084554 0.373297
v 5.939351 -0.112555 -0.166234
v 6.073966 -0.049179 -0.134434
v 6.154992 0.168908 0.475958
v 4.952996 -0.211849 -0.051190
v 4.650698 -0.039738 -0.138196
v 5.604105 -0.274561 0.429554
v 5.103682 0.287419 -0.744613
v 4.851483 0.053110 -0.529471
v 4.587864 0.211189 -0.409299
v 4.571659 0.106938 -0.307192
v 4.511726 0.013441 -0.310040
v 4.564580 0.191309 -0.215559
v 4.376046 0.409076 -0.272743
v 4.311749 0.328042 -0.405469
v 4.271658 0.033249 -0.420057
v 4.336489 -0.016197 -0.306238
v 6.542418 0.001444 -0.391366
v 6.467218 -0.059008 -0.420234
v 6.667899 0.184511 -0.535018
v 4.228108 -0.040992 -0.457855
v 4.115219 0.114753 -0.409332
v 4.042758 0.215943 -0.521144
v 4.087718 0.438615 -0.427464
v 4.391057 0.443676 -0.319163
v 4.169999 0.451980 -0.495631
v 6.160830 -0.008124 -0.350847
v 6.339619 0.426645 -0.272357
v 6.480289 0.491018 -0.404692
v 6.174289 0.309882 -0.353316
v 6.121478 0.431218 -0.410803
v 5.807313 0.231760 -0.655278
v 5.913976 -0.041413 -0.382944
v 4.592195 -0.034133 -0.334647
v 4.751729 -0.108609 -0.173343
v 4.545268 -0.114478 -0.180404
v 5.010419 0.129153 0.803376
v 5.793249 0.173059 0.792574
v 5.742329 0.341602 0.805365
v 5.861734 0.418422 0.588079
v 5.621155 -0.789751 0.673749
v 5.675305 -0.933125 0.572657
v 5.676021 -0.546675 0.574063
v 5.575023 -0.192834 0.556253
v 5.969427 -0.002055 0.593075
v 4.552997 0.244984 0.511726
v 5.624074 0.663995 0.817355
v 6.004941 0.444860 0.712528
v 5.114288 0.649632 0.828992
v 5.528604 0.667752 0.727695
v 5.365586 0.392661 0.801324
v 5.440654 0.467056 0.622367
v 5.136860 0.730646 0.687047
v 5.637931 0.445663 0.765760
v 5.979153 0.358375 0.679045
v 4.986589 0.421337 0.751264
v 5.356074 -0.139238 0.753227
v 5.400091 -0.888303 0.683796
v 5.089024 -0.925638 0.604782
v 5.530642 -0.955503 0.606765
v 5.379755 -0.329309 0.759808
v 5.461340 -0.752937 0.728075
v 5.213978 -0.385994 0.731630
v 5.050407 -0.593491 0.595835
v 5.243057 -0.255923 0.750089
v 5.377356 -0.168935 0.810702
v 5.255775 -0.210442 0.823316
v 5.932838 0.332286 0.693100
v 5.912159 0.285812 0.674367
v 4.927621 0.545735 0.534593
v 4.960367 -0.125529 0.417154
v 5.349750 -0.797073 0.366574
v 5.673465 -0.870464 0.423601
v 5.371506 -0.528663 0.305894
v 5.446944 -0.962871 0.481443
v 5.050744 -0.906183 0.442664
v 5.128749 -0.257836 0.441305
v 5.175054 -0.468892 0.359271
v 5.208117 -0.423369 0.231276
v 5.421661 0.048680 -0.756176
v 5.721218 -0.061750 -0.582436
v 5.122403 -0.303879 -0.284251
v 5.882440 0.576686 -0.551705
v 5.752962 0.853238 0.172068
v 4.796607 0.797095 -0.250356
v 6.164440 0.586142 -0.054743
v 5.625278 0.530926 0.539456
v 6.205807 0.309968 -0.192647
v 4.556734 0.302947 -0.355835
v 6.414689 0.326186 -0.401727
v 6.547638 0.358215 -0.415864
v 6.668828 0.343649 -0.420562
v 4.175579 0.388004 -0.395434
v 4.130319 0.270101 -0.424613
v 6.583559 0.261561 -0.458527
v 6.219378 -0.069787 -0.173806
v 6.557699 0.120790 -0.449482
v 6.429978 0.025492 -0.401236
v 4.124208 0.232585 -0.478536
v 6.216937 0.001710 -0.306764
v 6.156382 0.109762 -0.303149
v 6.290836 0.245807 -0.329788
v 4.381816 0.206244 -0.356834
v 6.672688 0.372743 -0.506236
v 5.603948 0.897506 0.063474
v 5.606858 0.850861 0.210208
v 5.408277 0.788516 0.323713
v 5.719536 0.768862 0.268244
v 5.743584 0.829566 0.199050
v 5.796025 0.797486 0.192558
v 5.605782 0.868107 0.155955
v 5.685996 0.852148 0.189549
v 5.405935 0.907867 0.072261
v 5.578333 0.905116 0.044807
v 5.386064 0.814883 0.301629
v 5.338712 0.773546 0.341532
v 5.524580 0.884263 0.121949
v 5.676088 0.883994 -0.167617
v 5.431112 0.848002 0.256086
v 5.728432 0.835508 0.196550
v 5.329056 0.738920 0.373027
v 5.425227 0.768395 0.340565
v 5.747619 0.839750 0.187442
v 5.492191 0.783217 0.308759
v 5.239692 0.920418 0.001065
v 5.482533 0.867951 0.182290
v 5.394663 0.893161 0.121078
v 5.024018 0.849591 -0.242161
vn 0.4479 -0.8689 0.2107
vn -0.3004 -0.9369 0.1787
vn -0.5739 -0.7314 0.3685
vn 0.8808 -0.1774 0.4390
vn -0.7723 0.3903 0.5012
vn -0.0208 0.8851 0.4650
vn 0.3308 0.8611 0.3862
vn -0.8730 0.4815 0.0775
vn -0.3458 -0.8481 0.4014
vn 0.9225 0.3277 0.2042
vn -0.0048 -0.9728 0.2317
vn -0.1730 -0.2305 0.9576
vn -0.1775 0.1489 0.9728
vn 0.3159 0.4847 0.8157
vn -0.2571 0.1954 0.9464
vn -0.2025 -0.1485 0.9680
vn 0.4414 0.7805 -0.4427
vn -0.5405 0.6205 0.5682
vn 0.8670 -0.4982 0.0110
vn 0.0227 -0.9686 -0.2478
vn 0.1964 0.9715 -0.1326
vn -0.0275 0.6737 -0.7384
vn -0.5121 0.7196 0.4690
vn -0.2196 0.7039 0.6755
vn -0.2479 0.6888 0.6813
vn 0.8933 0.3690 -0.2568
vn -0.9798 0.0772 0.1843
vn -0.9090 0.3893 -0.1490
vn 0.4029 -0.9091 0.1063
vn 0.5984 -0.7764 0.1979
vn -0.5292 -0.8208 0.2150
vn 0.6092 -0.7823 0.1301
vn -0.5094 -0.2164 -0.8329
vn -0.6498 0.3968 0.6483
vn -0.9390 -0.2861 0.1909
vn -0.6793 -0.4324 0.5930
vn -0.1384 0.8771 0.4599
vn 0.6649 -0.6866 -0.2942
vn -0.8104 -0.5858 -0.0050
vn -0.0600 0.9907 0.1218
vn -0.2517 -0.2351 -0.9388
vn -0.5220 0.8404 -0.1461
vn 0.6230 -0.0267 -0.7817
vn 0.6325 -0.0488 -0.7730
vn 0.1837 -0.6571 -0.7311
vn -0.5240 -0.2564 -0.8122
vn 0.0372 -0.9546 -0.2954
vn 0.8464 0.0302 0.5317
vn -0.3348 -0.9389 0.0803
vn 0.2400 -0.4663 0.8514
vn 0.0257 -0.8351 0.5496
vn 0.3005 -0.7265 0.6179
vn -0.6860 -0.4221 0.5927
vn -0.7294 0.4252 0.5359
vn 0.7323 0.1536 0.6635
vn 0.0015 0.7651 0.6439
vn 0.1000 0.9407 0.3240
vn -0.1563 0.8123 0.5619
vn 0.8993 0.2034 0.3871
vn -0.9180 0.2169 0.3321
vn 0.8540 0.0325 0.5193
vn 0.3641 0.0394 0.9305
vn -0.4562 -0.0749 0.8867
vn -0.2090 0.0239 0.9776
vn -0.0698 0.1424 0.9873
vn -0.0221 0.1454 0.9891
vn 0.2316 -0.0039 0.9728
vn -0.2370 -0.0095 0.9715
vn 0.8795 -0.0034 0.4759
vn 0.5078 -0.7336 0.4517
vn 0.2366 -0.6316 0.7383
vn 0.7176 -0.3782 0.5849
vn -0.6606 -0.3988 0.6361
vn -0.9545 0.0161 0.2978
vn 0.5367 0.7326 0.4185
vn 0.4810 0.6900 0.5408
vn -0.5192 0.5773 0.6302
vn -0.5771 0.5122 0.6360
vn -0.8671 0.4686 -0.1689
vn 0.6629 0.6000 0.4479
vn 0.1887 -0.2145 0.9583
vn -0.2058 -0.2103 0.9557
vn 0.0415 -0.3715 0.9275
vn -0.2415 -0.1890 0.9518
vn 0.3758 -0.2246 0.8991
vn 0.3983 -0.4320 0.8091
vn -0.3663 -0.3029 0.8798
vn 0.1773 -0.0444 0.9832
vn -0.1779 -0.0757 0.9811
vn -0.4077 -0.4133 0.8142
vn 0.1212 0.0448 0.9916
vn 0.1677 -0.2166 0.9617
vn -0.0796 -0.1833 0.9798
vn 0.1400 -0.0562 0.9886
vn -0.0683 -0.2213 0.9728
vn 0.0104 -0.0587 0.9982
vn 0.0080 -0.0402 0.9992
vn -0.1592 -0.4887 0.8578
vn -0.0567 -0.7979 0.6001
vn 0.2511 -0.4774 0.8420
vn 0.2710 -0.4842 0.8319
vn 0.3199 -0.0094 0.9474
vn -0.5470 -0.0694 0.8343
vn -0.6010 -0.0484 0.7978
vn -0.1296 -0.1109 0.9854
vn -0.0233 -0.0791 0.9966
vn -0.1544 -0.0393 0.9872
vn 0.6069 -0.7034 0.3701
vn -0.0161 0.8859 0.4637
vn -0.4303 -0.7314 0.5290
vn -0.2293 0.8275 0.5125
vn 0.0575 0.6580 0.7508
vn 0.2224 0.6222 0.7506
vn 0.0209 0.2342 0.9720
vn 0.0051 -0.4671 0.8842
vn -0.0986 0.0217 0.9949
vn -0.9794 0.1962 0.0482
vn 0.2363 -0.0574 0.9700
vn 0.7605 0.0919 0.6428
vn 0.8676 0.2687 0.4185
vn -0.8734 0.1286 0.4697
vn -0.7817 0.2394 0.5759
vn 0.8761 0.2440 0.4159
vn -0.8755 0.1209 0.4678
vn 0.0689 -0.9013 0.4277
vn 0.2146 -0.3900 0.8955
vn 0.6169 0.7818 0.0911
vn -0.8913 0.4396 -0.1110
vn 0.0145 0.3102 0.9505
vn 0.5579 -0.2068 0.8037
vn 0.3282 -0.0753 0.9416
vn -0.2518 -0.1071 0.9618
vn 0.2575 -0.1074 0.9603
vn -0.3491 -0.7048 0.6176
vn 0.2598 0.0581 0.9639
vn 0.0713 -0.4000 0.9137
vn -0.1616 -0.2541 0.9536
vn -0.9243 0.3599 0.1275
vn -0.4847 -0.2992 0.8219
vn 0.2315 0.4650 0.8545
vn 0.1988 0.0799 0.9768
vn -0.2571 0.2398 0.9362
vn 0.3092 -0.1181 0.9436
vn -0.9644 0.1321 0.2291
vn 0.0559 0.9134 0.4032
vn 0.8410 0.4964 -0.2151
vn -0.1700 0.9603 0.2213
vn -0.0339 0.8703 0.4913
vn -0.3246 0.7927 -0.5160
vn -0.3476 0.8159 -0.4621
vn -0.3270 0.9328 -0.1517
vn 0.9977 -0.0681 0.0038
vn 0.6605 -0.7493 -0.0472
vn -0.7747 -0.5987 0.2035
vn -0.5601 -0.8153 -0.1468
vn 0.1302 -0.1829 -0.9745
vn 0.2426 -0.2326 -0.9418
vn 0.0182 -0.5622 -0.8268
vn -0.0011 -0.5699 -0.8217
vn -0.0676 -0.9923 0.1035
vn -0.1327 -0.9873 -0.0871
vn 0.1440 -0.9888 -0.0380
vn 0.2659 -0.8875 -0.3764
vn 0.9999 -0.0018 -0.0131
vn -0.9704 -0.1070 0.2163
vn -0.9644 0.1155 -0.2380
vn 0.6472 0.0829 -0.7578
vn -0.3099 -0.1857 -0.9325
vn -0.7517 0.0891 -0.6535
vn -0.2004 -0.1283 -0.9713
vn 0.8783 -0.4742 0.0615
vn -0.9542 -0.0998 -0.2820
vn 0.9583 0.1142 -0.2619
vn 0.9602 0.2762 0.0422
vn -0.9616 0.2620 0.0815
vn 0.4223 -0.8975 0.1269
vn -0.3794 -0.9197 0.1007
vn 0.2043 -0.6277 -0.7512
vn -0.3395 -0.4113 -0.8459
vn -0.3277 -0.4780 -0.8149
vn 0.3025 -0.7870 -0.5377
vn -0.0426 -0.9714 -0.2336
vn -0.0762 -0.9741 -0.2131
vn 0.2550 -0.2636 -0.9303
vn -0.3639 -0.8439 -0.3942
vn 0.9242 -0.3817 0.0137
vn 0.2510 0.0048 -0.9680
vn 0.3698 0.1924 -0.9090
vn -0.0395 -0.0042 -0.9992
vn 0.2666 0.9634 0.0269
vn 0.0632 0.9515 0.3012
vn -0.0467 0.9594 0.2782
vn -0.1735 0.9762 -0.1304
vn -0.2179 0.9659 -0.1400
vn -0.0798 0.9736 -0.2138
vn 0.2590 0.5869 -0.7671
vn -0.3536 0.4200 -0.8358
vn -0.3339 0.4242 -0.8418
vn 0.6445 0.6474 0.4069
vn 0.7895 0.5222 -0.3225
vn -0.7974 0.5874 -0.1382
vn 0.5590 0.1244 -0.8198
vn 0.6461 0.5263 -0.5528
vn 0.3733 0.6687 -0.6430
vn -0.4813 0.6968 -0.5318
vn 0.5987 0.7843 0.1626
vn -0.6495 0.7538 0.0999
vn 0.4448 0.5909 0.6730
vn -0.5962 0.6063 0.5262
vn 0.4139 0.9078 -0.0677
vn -0.4780 0.8700 0.1209
vn 0.1665 0.7118 0.6823
vn 0.0479 0.6648 0.7455
vn -0.2064 0.3425 -0.9166
vn -0.4620 0.5624 -0.6858
vn 0.2525 0.4292 -0.8672
vn -0.0288 0.8219 0.5689
vn 0.0018 0.9007 -0.4344
vn 0.1831 0.9820 -0.0464
vn 0.0151 0.7755 0.6311
vn 0.9544 0.1385 0.2643
vn -0.9491 0.2053 -0.2391
vn -0.9057 -0.0076 -0.4239
vn 0.9856 0.0711 0.1532
vn -0.9811 0.0732 0.1790
vn 0.9302 0.3183 -0.1826
vn 0.9414 0.2526 -0.2235
vn -0.9222 0.2778 -0.2690
vn -0.7597 0.1152 -0.6400
vn 0.5229 -0.8501 -0.0625
vn -0.5718 -0.8150 -0.0938
vn -0.5212 -0.8404 0.1485
vn -0.5819 -0.7981 0.1563
vn -0.6115 -0.7172 0.3342
vn 0.7203 -0.6554 0.2271
vn -0.7178 -0.6826 0.1371
vn 0.5769 -0.6197 0.5322
vn -0.5868 -0.6616 0.4668
vn 0.6893 -0.3584 -0.6295
vn 0.3813 -0.3265 -0.8649
vn -0.5506 0.0649 -0.8322
vn 0.5630 -0.7635 -0.3165
vn -0.0055 -0.9099 -0.4147
vn 0.5150 -0.7464 -0.4215
vn -0.4807 -0.7142 -0.5087
vn -0.4629 -0.8863 0.0135
vn -0.5174 -0.7153 -0.4697
vn 0.2395 -0.6946 0.6783
vn -0.1021 -0.9473 0.3037
vn -0.3364 0.0120 0.9416
vn -0.3737 0.7975 0.4736
vn 0.4569 0.5058 0.7317
vn 0.2260 0.0736 0.9713
vn -0.3823 -0.0811 0.9205
vn -0.6066 0.2873 0.7412
vn -0.6011 -0.6001 0.5278
vn 0.4602 -0.7773 0.4289
vn -0.4575 0.1504 0.8764
vn -0.6007 -0.6006 0.5276
vn 0.0143 0.4363 0.8997
vn 0.4652 0.8776 0.1163
vn 0.2999 0.4660 0.8324
vn -0.9739 0.1872 0.1283
vn 0.9940 -0.1008 -0.0425
vn -0.0137 -0.4080 0.9129
vn 0.9056 -0.3893 0.1682
vn -0.2862 -0.7499 0.5965
vn 0.1174 -0.6332 0.7650
vn -0.0166 -0.4738 0.8805
vn -0.9526 -0.3029 0.0290
vn -0.4457 -0.1543 0.8818
vn 0.0731 0.7882 0.6111
vn 0.2447 0.8558 0.4557
vn 0.6668 0.3517 0.6570
vn 0.6185 -0.4912 0.6133
vn 0.6487 -0.4508 0.6131
vn 0.6798 -0.3333 0.6533
vn -0.9231 -0.2447 0.2967
vn 0.9381 -0.3463 -0.0118
vn 0.9350 -0.3177 0.1574
vn -0.1446 0.9062 0.3974
vn -0.1259 -0.4351 0.8915
vn 0.1801 -0.3404 0.9229
vn 0.1224 0.8750 0.4683
vn 0.1352 0.8448 0.5177
vn -0.2024 0.1001 0.9742
vn -0.6131 -0.0376 0.7891
vn -0.4931 -0.6586 0.5683
vn 0.1463 0.0489 0.9880
vn -0.4201 -0.0633 0.9053
vn 0.4039 -0.0361 0.9141
vn 0.4092 -0.0450 0.9114
vn -0.4311 -0.0547 0.9007
vn 0.3570 -0.0056 0.9341
vn 0.3837 0.2129 0.8986
vn -0.4137 0.1222 0.9022
vn 0.1530 -0.9820 0.1109
vn -0.2683 -0.6643 -0.6977
vn 0.8725 -0.2887 0.3943
vn 0.9989 -0.0307 0.0346
vn -0.8560 -0.0439 0.5151
vn 0.6057 0.7447 0.2802
vn -0.6210 0.4072 -0.6698
vn -0.3438 0.0073 -0.9390
vn 0.3209 -0.0258 -0.9468
vn -0.2871 0.2206 -0.9321
vn -0.3884 0.1489 -0.9094
vn 0.2704 -0.0418 -0.9618
vn 0.3283 -0.0336 -0.9440
vn -0.6111 0.7825 0.1195
vn 0.4075 0.8971 -0.1710
vn 0.6980 -0.0351 -0.7153
vn -0.9334 -0.1195 -0.3384
vn 0.1678 -0.9307 -0.3252
vn 0.2087 -0.7929 -0.5725
vn 0.0631 0.9515 0.3012
vn 0.1665 0.7118 0.6824
vn -0.0301 -0.9622 -0.2706
usemtl None.001
s off
f 1//1 2//1 3//1
f 4//2 5//2 6//2
f 7//3 8//3 2//3
f 9//4 10//4 4//4
f 11//5 12//5 13//5
f 14//6 12//6 11//6
f 15//7 9//7 16//7
f 17//8 16//8 6//8
f 18//9 19//9 20//9
f 21//10 22//10 23//10
f 24//11 25//11 26//11
f 27//12 28//12 29//12
f 28//13 30//13 31//13
f 32//14 33//14 34//14
f 31//15 35//15 36//15
f 36//16 37//16 29//16
f 38//17 39//17 40//17
f 41//18 42//18 43//18
f 44//19 45//19 46//19
f 44//20 46//20 47//20
f 181//21 50//21 48//21
f 51//22 50//22 52//22
f 53//23 54//23 55//23
f 55//24 56//24 57//24
f 184//25 179//25 57//25
f 59//26 60//26 38//26
f 53//27 61//27 54//27
f 62//28 63//28 53//28
f 64//29 65//29 66//29
f 67//30 64//30 66//30
f 68//31 61//31 69//31
f 64//32 70//32 65//32
f 71//33 72//33 73//33
f 69//34 74//34 75//34
f 69//35 76//35 74//35
f 76//36 77//36 78//36
f 75//37 79//37 80//37
f 81//38 82//38 83//38
f 84//39 85//39 86//39
f 87//40 88//40 89//40
f 83//41 82//41 90//41
f 91//42 92//42 93//42
f 63//43 89//43 88//43
f 94//44 90//44 95//44
f 90//45 96//45 95//45
f 97//46 73//46 72//46
f 98//47 99//47 84//47
f 14//48 1//48 3//48
f 4//49 100//49 5//49
f 101//50 7//50 1//50
f 1//51 7//51 2//51
f 4//52 10//52 100//52
f 7//53 13//53 8//53
f 13//54 12//54 8//54
f 15//55 10//55 9//55
f 102//56 14//56 11//56
f 14//57 103//57 12//57
f 17//58 15//58 16//58
f 14//59 3//59 103//59
f 5//60 17//60 6//60
f 101//61 1//61 14//61
f 101//62 14//62 102//62
f 17//63 5//63 100//63
f 17//64 100//64 10//64
f 102//65 11//65 7//65
f 11//66 13//66 7//66
f 101//67 102//67 7//67
f 15//68 17//68 10//68
f 104//69 105//69 106//69
f 21//70 107//70 32//70
f 107//71 108//71 32//71
f 108//72 67//72 38//72
f 41//73 109//73 18//73
f 43//74 109//74 41//74
f 40//75 110//75 111//75
f 38//76 40//76 111//76
f 42//77 41//77 112//77
f 113//78 114//78 110//78
f 115//79 114//79 113//79
f 114//80 116//80 112//80
f 117//81 118//81 110//81
f 112//82 119//82 37//82
f 111//83 110//83 118//83
f 119//84 112//84 41//84
f 108//85 38//85 118//85
f 38//86 111//86 118//86
f 18//87 27//87 41//87
f 34//88 21//88 32//88
f 30//89 20//89 35//89
f 20//90 30//90 18//90
f 120//91 35//91 20//91
f 110//92 114//92 117//92
f 114//93 112//93 37//93
f 34//94 117//94 114//94
f 114//95 37//95 34//95
f 37//96 35//96 34//96
f 35//97 120//97 34//97
f 121//98 24//98 122//98
f 123//99 121//99 122//99
f 104//100 121//100 123//100
f 104//101 123//101 105//101
f 104//102 124//102 125//102
f 126//103 122//103 24//103
f 126//104 127//104 122//104
f 124//105 128//105 126//105
f 124//106 24//106 125//106
f 124//107 126//107 24//107
f 23//108 22//108 124//108
f 129//109 21//109 120//109
f 128//110 124//110 130//110
f 130//111 129//111 120//111
f 130//112 120//112 20//112
f 129//113 22//113 21//113
f 130//114 22//114 129//114
f 130//115 124//115 22//115
f 120//116 21//116 34//116
f 128//117 130//117 20//117
f 124//118 104//118 23//118
f 106//119 23//119 104//119
f 107//120 23//120 106//120
f 128//121 19//121 126//121
f 19//122 127//122 126//122
f 107//123 21//123 23//123
f 128//124 20//124 19//124
f 125//125 24//125 26//125
f 104//126 125//126 121//126
f 24//127 121//127 25//127
f 121//128 125//128 26//128
f 25//129 121//129 26//129
f 108//130 118//130 32//130
f 32//131 118//131 131//131
f 119//132 41//132 27//132
f 117//133 33//133 132//133
f 37//134 119//134 29//134
f 117//135 131//135 118//135
f 131//136 117//136 132//136
f 119//137 27//137 29//137
f 32//138 131//138 132//138
f 30//139 27//139 18//139
f 28//140 27//140 30//140
f 32//141 132//141 33//141
f 30//142 35//142 31//142
f 117//143 34//143 33//143
f 36//144 35//144 37//144
f 114//145 115//145 56//145
f 116//146 114//146 56//146
f 110//147 40//147 113//147
f 42//148 112//148 116//148
f 43//149 116//149 133//149
f 43//150 42//150 116//150
f 43//151 133//151 54//151
f 67//152 59//152 38//152
f 67//153 108//153 64//153
f 61//154 18//154 109//154
f 61//155 134//155 18//155
f 135//156 46//156 136//156
f 46//157 135//157 137//157
f 135//158 136//158 138//158
f 135//159 138//159 139//159
f 138//160 123//160 122//160
f 138//161 122//161 139//161
f 105//162 123//162 138//162
f 105//163 138//163 136//163
f 106//164 105//164 136//164
f 139//165 122//165 127//165
f 140//166 139//166 127//166
f 136//167 46//167 70//167
f 137//168 135//168 141//168
f 141//169 139//169 140//169
f 139//170 141//170 135//170
f 45//171 70//171 46//171
f 142//172 141//172 140//172
f 70//173 106//173 136//173
f 106//174 70//174 107//174
f 140//175 127//175 19//175
f 107//176 64//176 108//176
f 134//177 19//177 18//177
f 143//178 144//178 47//178
f 71//179 143//179 72//179
f 72//180 143//180 47//180
f 144//181 44//181 47//181
f 145//182 47//182 46//182
f 142//183 145//183 46//183
f 142//184 46//184 137//184
f 137//185 141//185 142//185
f 59//186 67//186 66//186
f 52//187 95//187 143//187
f 146//188 95//188 52//188
f 71//189 52//189 143//189
f 181//190 177//190 168//190
f 147//191 174//191 175//191
f 58//192 188//192 57//192
f 191//193 48//193 51//193
f 148//194 191//194 51//194
f 51//195 48//195 50//195
f 50//196 146//196 52//196
f 71//197 51//197 52//197
f 62//198 51//198 71//198
f 173//199 149//199 147//199
f 149//200 94//200 49//200
f 53//201 148//201 62//201
f 95//202 146//202 94//202
f 94//203 146//203 49//203
f 146//204 50//204 49//204
f 148//205 51//205 62//205
f 49//206 147//206 149//206
f 53//207 57//207 148//207
f 147//208 172//208 173//208
f 53//209 55//209 57//209
f 38//210 60//210 39//210
f 54//211 133//211 55//211
f 171//212 185//212 150//212
f 150//213 184//213 56//213
f 115//214 40//214 39//214
f 113//215 40//215 115//215
f 116//216 56//216 133//216
f 115//217 39//217 150//217
f 39//218 60//218 150//218
f 55//219 133//219 56//219
f 150//220 56//220 115//220
f 59//221 149//221 60//221
f 109//222 43//222 54//222
f 61//223 109//223 54//223
f 59//224 151//224 149//224
f 53//225 63//225 61//225
f 94//226 151//226 93//226
f 94//227 149//227 151//227
f 62//228 152//228 63//228
f 62//229 73//229 152//229
f 44//230 65//230 45//230
f 145//231 142//231 68//231
f 98//232 68//232 69//232
f 68//233 134//233 61//233
f 142//234 140//234 134//234
f 70//235 45//235 65//235
f 68//236 142//236 134//236
f 70//237 64//237 107//237
f 140//238 19//238 134//238
f 95//239 96//239 144//239
f 95//240 144//240 143//240
f 73//241 62//241 71//241
f 65//242 44//242 96//242
f 98//243 97//243 72//243
f 44//244 144//244 96//244
f 47//245 145//245 72//245
f 145//246 68//246 98//246
f 72//247 145//247 98//247
f 91//248 153//248 154//248
f 91//249 154//249 155//249
f 87//250 156//250 88//250
f 156//251 77//251 88//251
f 92//252 91//252 155//252
f 157//253 87//253 85//253
f 157//254 156//254 87//254
f 155//255 158//255 81//255
f 85//256 84//256 80//256
f 81//257 159//257 82//257
f 69//258 80//258 99//258
f 80//259 84//259 99//259
f 81//260 160//260 161//260
f 80//261 79//261 85//261
f 79//262 162//262 85//262
f 158//263 160//263 81//263
f 162//264 157//264 85//264
f 154//265 158//265 155//265
f 162//266 156//266 157//266
f 78//267 77//267 156//267
f 65//268 159//268 66//268
f 99//269 98//269 69//269
f 63//270 69//270 61//270
f 76//271 63//271 77//271
f 77//272 63//272 88//272
f 159//273 163//273 66//273
f 164//274 66//274 163//274
f 151//275 164//275 165//275
f 151//276 165//276 153//276
f 91//277 151//277 153//277
f 63//278 76//278 69//278
f 59//279 66//279 151//279
f 66//280 164//280 151//280
f 80//281 69//281 75//281
f 78//282 156//282 162//282
f 158//283 154//283 153//283
f 81//284 163//284 159//284
f 81//285 161//285 163//285
f 75//286 74//286 166//286
f 166//287 76//287 78//287
f 166//288 74//288 76//288
f 165//289 164//289 163//289
f 75//290 166//290 79//290
f 158//291 165//291 163//291
f 158//292 163//292 161//292
f 166//293 162//293 79//293
f 158//294 161//294 160//294
f 158//295 153//295 165//295
f 166//296 78//296 162//296
f 82//297 159//297 65//297
f 82//298 65//298 90//298
f 155//299 81//299 83//299
f 155//300 83//300 167//300
f 86//301 85//301 87//301
f 155//302 167//302 92//302
f 87//303 89//303 86//303
f 83//304 90//304 93//304
f 97//305 84//305 152//305
f 93//306 92//306 83//306
f 92//307 167//307 83//307
f 86//308 89//308 84//308
f 84//309 89//309 152//309
f 93//310 151//310 91//310
f 63//311 152//311 89//311
f 94//312 93//312 90//312
f 97//313 152//313 73//313
f 65//314 96//314 90//314
f 97//315 98//315 84//315
f 174//316 180//316 189//316
f 169//317 182//317 187//317
f 175//316 174//316 169//316
f 176//191 177//191 48//191
f 171//208 150//208 60//208
f 183//317 147//317 175//317
f 177//190 181//190 48//190
f 180//191 168//191 177//191
f 182//316 190//316 58//316
f 178//317 182//317 58//317
f 179//213 178//213 58//213
f 186//212 183//212 172//212
f 185//212 187//212 170//212
f 183//212 171//212 172//212
f 170//213 178//213 179//213
f 188//193 191//193 57//193
f 188//192 176//192 48//192
f 190//191 180//191 176//191
f 181//21 49//21 50//21
f 57//25 56//25 184//25
f 179//25 58//25 57//25
f 168//190 147//190 181//190
f 147//190 49//190 181//190
f 147//191 168//191 174//191
f 58//192 190//192 188//192
f 191//193 188//193 48//193
f 148//194 57//194 191//194
f 173//199 60//199 149//199
f 147//318 186//318 172//318
f 171//212 187//212 185//212
f 150//213 185//213 184//213
f 182//316 169//316 189//316
f 169//191 174//191 189//191
f 178//317 170//317 182//317
f 170//212 187//212 182//212
f 187//212 183//212 169//212
f 183//317 175//317 169//317
f 176//316 180//316 177//316
f 60//208 173//208 171//208
f 173//208 172//208 171//208
f 183//317 186//317 147//317
f 180//316 174//316 168//316
f 182//191 189//191 190//191
f 183//317 187//317 171//317
f 179//213 184//213 185//213
f 185//213 170//213 179//213
f 188//192 190//192 176//192
f 190//316 189//316 180//316
